<svg width="25" height="25" viewBox="0 0 25 25" fill="none" xmlns="http://www.w3.org/2000/svg">
<path d="M5.32698 7.63803L5.77248 7.86502L5.32698 7.63803ZM5.7682 19.2318L6.12175 19.5854H6.12175L5.7682 19.2318ZM18.362 16.673L18.135 16.2275L18.362 16.673ZM19.673 15.362L19.2275 15.135L19.673 15.362ZM19.673 7.63803L19.2275 7.86502V7.86502L19.673 7.63803ZM18.362 6.32698L18.589 5.88148V5.88148L18.362 6.32698ZM6.63803 6.32698L6.86502 6.77248L6.63803 6.32698ZM7.70711 17.2929L8.06066 17.6464L7.70711 17.2929ZM5.5 10.8C5.5 9.95167 5.50039 9.34549 5.53921 8.87032C5.57756 8.40099 5.65089 8.10366 5.77248 7.86502L4.88148 7.41103C4.67609 7.81413 4.58593 8.25771 4.54253 8.78889C4.49961 9.31423 4.5 9.96817 4.5 10.8H5.5ZM5.5 12V10.8H4.5V12H5.5ZM4.5 12V17H5.5V12H4.5ZM4.5 17V18.9136H5.5V17H4.5ZM4.5 18.9136C4.5 19.76 5.52329 20.1838 6.12175 19.5854L5.41465 18.8782C5.41754 18.8753 5.42812 18.868 5.44323 18.8654C5.4556 18.8632 5.46421 18.8654 5.46913 18.8674C5.47406 18.8695 5.48164 18.874 5.48888 18.8843C5.49771 18.8968 5.5 18.9095 5.5 18.9136H4.5ZM6.12175 19.5854L8.06066 17.6464L7.35355 16.9393L5.41465 18.8782L6.12175 19.5854ZM15.2 16.5H8.41421V17.5H15.2V16.5ZM18.135 16.2275C17.8963 16.3491 17.599 16.4224 17.1297 16.4608C16.6545 16.4996 16.0483 16.5 15.2 16.5V17.5C16.0318 17.5 16.6858 17.5004 17.2111 17.4575C17.7423 17.4141 18.1859 17.3239 18.589 17.1185L18.135 16.2275ZM19.2275 15.135C18.9878 15.6054 18.6054 15.9878 18.135 16.2275L18.589 17.1185C19.2475 16.783 19.783 16.2475 20.1185 15.589L19.2275 15.135ZM19.5 12.2C19.5 13.0483 19.4996 13.6545 19.4608 14.1297C19.4224 14.599 19.3491 14.8963 19.2275 15.135L20.1185 15.589C20.3239 15.1859 20.4141 14.7423 20.4575 14.2111C20.5004 13.6858 20.5 13.0318 20.5 12.2H19.5ZM19.5 10.8V12.2H20.5V10.8H19.5ZM19.2275 7.86502C19.3491 8.10366 19.4224 8.40099 19.4608 8.87032C19.4996 9.34549 19.5 9.95167 19.5 10.8H20.5C20.5 9.96817 20.5004 9.31423 20.4575 8.78889C20.4141 8.25771 20.3239 7.81413 20.1185 7.41103L19.2275 7.86502ZM18.135 6.77248C18.6054 7.01217 18.9878 7.39462 19.2275 7.86502L20.1185 7.41103C19.783 6.75247 19.2475 6.21703 18.589 5.88148L18.135 6.77248ZM15.2 6.5C16.0483 6.5 16.6545 6.50039 17.1297 6.53921C17.599 6.57756 17.8963 6.65089 18.135 6.77248L18.589 5.88148C18.1859 5.67609 17.7423 5.58593 17.2111 5.54253C16.6858 5.49961 16.0318 5.5 15.2 5.5V6.5ZM9.8 6.5H15.2V5.5H9.8V6.5ZM6.86502 6.77248C7.10366 6.65089 7.40099 6.57756 7.87032 6.53921C8.34549 6.50039 8.95167 6.5 9.8 6.5V5.5C8.96817 5.5 8.31423 5.49961 7.78889 5.54253C7.25771 5.58593 6.81413 5.67609 6.41103 5.88148L6.86502 6.77248ZM5.77248 7.86502C6.01217 7.39462 6.39462 7.01217 6.86502 6.77248L6.41103 5.88148C5.75247 6.21703 5.21703 6.75247 4.88148 7.41103L5.77248 7.86502ZM8.06066 17.6464C8.15443 17.5527 8.28161 17.5 8.41421 17.5V16.5C8.01639 16.5 7.63486 16.658 7.35355 16.9393L8.06066 17.6464Z" fill="#CFE6FF"/>
<path d="M9 10L16 10" stroke="#CFE6FF" stroke-linecap="round" stroke-linejoin="round"/>
<path d="M9 13L14 13" stroke="#CFE6FF" stroke-linecap="round" stroke-linejoin="round"/>
</svg>
